<?xml version="1.0"?><svg width="640" height="480" xmlns="http://www.w3.org/2000/svg">
 <title>libro gran</title>

 <g>
  <title>Layer 1</title>
  <g id="svg_1">
   <path id="svg_2" fill-rule="evenodd" d="m593.274536,233.169037c5.448303,-1.317322 3.4021,4.853775 8.850464,3.536469c2.902832,3.783951 -4.512024,8.582977 -1.770142,17.680481l-3.244568,-0.884125l-2.065552,2.652344c-3.956299,-0.7621 -0.716919,-8.713806 -1.770203,-12.377579l0.785889,-4.813126l-4.32605,-2.257996c0,-0.588821 0,-1.179443 0,-1.768234l2.655273,0.884125l0.884888,-2.652359z" clip-rule="evenodd"/>
   <path id="svg_3" fill-rule="evenodd" d="m598.289124,257.03653l2.065674,-2.652313c12.15863,7.301025 22.729614,16.18988 33.626282,24.753387c1.233643,8.892456 -3.002136,12.322784 -1.770081,21.21521c-54.245789,4.917419 -103.850525,10.945343 -155.745758,17.68045c-16.339508,2.120117 -35.153687,2.960083 -49.556793,7.071167c-21.402008,6.111023 -29.146118,21.501587 -54.865387,24.753326c-12.564026,1.586182 -21.869293,-3.17392 -35.39624,-1.768188c-16.36084,1.699249 -35.906006,12.97522 -53.097015,19.44696c-51.162354,19.264832 -104.595734,40.250153 -150.43718,63.649048c-13.764107,-14.103394 -21.658684,-32.717407 -31.857872,-49.505035c-29.542603,-48.6297 -61.966915,-98.767792 -92.031673,-148.511505c-1.584223,-5.707794 5.772221,-2.484344 7.080318,-5.304657l2.655125,0.884094l2.655115,-0.884094c36.936201,60.931274 74.985819,120.750397 113.270838,180.336121c1.053177,-3.662048 -2.18782,-11.6138 1.77005,-12.375885l2.065735,2.652405l3.244537,-0.884155c2.348892,7.751862 -3.34549,16.559448 -1.770111,17.680481c64.937119,-31.782104 114.341721,-79.082092 212.382858,-77.793152c-1.501007,-20.355743 9.285797,-28.440094 15.927216,-40.663879c-2.802063,-0.146759 -6.74939,0.850555 -7.078613,-1.768158l0.88501,-2.650574l-0.88501,-2.652374c1.506348,0.325317 1.66922,-0.689636 1.770081,-1.768219l2.400208,-2.146637l-0.630127,-3.158051c6.841339,0.238708 6.979401,7.171936 12.388824,8.841156l2.148865,2.397644l3.159576,-0.629425c-1.182404,7.658142 -8.190094,9.497131 -8.848602,17.678711c8.337067,-0.511017 12.530365,-5.161438 23.007416,-3.534668c6.977692,1.869019 6.747559,10.941772 10.620453,15.910522c34.564392,-42.672668 119.621918,-34.906647 194.683868,-37.127441c-2.104614,-10.275208 -7.352844,-17.406433 -7.080322,-30.056366l3.242737,0.884094z" clip-rule="evenodd"/>
   <path id="svg_4" fill-rule="evenodd" d="m19.546185,225.21376l-3.244566,0.88414c0.146933,-2.799103 -0.851413,-6.744003 1.770081,-7.072922l2.065662,2.652359l3.244566,-0.884109c-0.146931,2.799088 0.851423,6.742233 -1.770071,7.072891l-2.065672,-2.652359z" clip-rule="evenodd"/>
   <g id="svg_5">
    <path id="svg_6" stroke-width="3.1619" stroke-linecap="round" stroke="#000000" fill-rule="evenodd" fill="none" d="m597.110291,253.501862c0.393066,1.179382 0.786011,2.357086 1.178894,3.536469" clip-rule="evenodd"/>
    <path id="svg_7" stroke-width="3.0818" stroke-linecap="round" stroke="#000000" fill-rule="evenodd" fill="none" d="m18.956734,228.750259c0.070787,-1.179428 0.325699,-2.357056 0.589451,-3.536499" clip-rule="evenodd"/>
    <path id="svg_8" stroke-width="3.3387" stroke-linecap="round" stroke="#000000" fill-rule="evenodd" fill="none" d="m20.137362,221.677338c1.493969,-8.729721 2.80559,-19.922607 11.916178,-24.046066" clip-rule="evenodd"/>
    <path id="svg_9" stroke-width="2.2807" stroke-linecap="round" stroke="#000000" fill-rule="evenodd" fill="none" d="m32.053539,197.633026c55.364506,-36.701294 132.85146,-94.999725 197.264652,-40.867264" clip-rule="evenodd"/>
    <path id="svg_10" stroke-width="2.328" stroke-linecap="round" stroke="#000000" fill-rule="evenodd" fill="none" d="m229.318192,156.765762c38.115097,-63.578339 121.418442,-32.026108 182.272018,-45.517685c59.844574,42.018356 122.301758,81.165131 180.801025,124.575073" clip-rule="evenodd"/>
    <path id="svg_11" stroke-width="3.9899" stroke-linecap="round" stroke="#000000" fill-rule="evenodd" fill="none" d="m379.502167,293.912933c48.785156,-66.617966 143.222321,-42.639038 214.560089,-54.947647" clip-rule="evenodd"/>
    <path id="svg_12" stroke-width="3.0382" stroke-linecap="round" stroke="#000000" fill-rule="evenodd" fill="none" d="m229.318192,156.765762c46.115768,42.244705 89.957108,87.159409 136.278244,129.06459" clip-rule="evenodd"/>
    <path id="svg_13" stroke-width="2.6156" stroke-linecap="round" stroke="#000000" fill-rule="evenodd" fill="none" d="m32.053539,197.633026c38.971828,54.689468 71.39082,114.600464 109.907688,169.905273" clip-rule="evenodd"/>
    <path id="svg_14" stroke-width="2.9805" stroke-linecap="round" stroke="#000000" fill-rule="evenodd" fill="none" d="m141.963013,367.53653c70.426071,-32.049103 137.924438,-86.07193 220.346436,-75.138947" clip-rule="evenodd"/>
    <path id="svg_15" stroke-width="3.7282" stroke-linecap="round" stroke="#000000" fill-rule="evenodd" fill="none" d="m141.963013,367.53653c-0.984146,10.319397 -1.646194,20.675934 -3.244583,30.940491" clip-rule="evenodd"/>
   </g>
  </g>
 </g>
</svg>